<svg width="149" height="91" viewBox="0 0 149 91" fill="none" xmlns="http://www.w3.org/2000/svg">
<g clip-path="url(#clip0_1716_18829)">
<path d="M146.25 90.9099C147.708 90.9099 148.89 89.7279 148.89 88.2699C148.89 86.8119 147.708 85.6299 146.25 85.6299C144.792 85.6299 143.61 86.8119 143.61 88.2699C143.61 89.7279 144.792 90.9099 146.25 90.9099Z" fill="#3B82F6"/>
<path d="M122.31 90.9099C123.768 90.9099 124.95 89.7279 124.95 88.2699C124.95 86.8119 123.768 85.6299 122.31 85.6299C120.852 85.6299 119.67 86.8119 119.67 88.2699C119.67 89.7279 120.852 90.9099 122.31 90.9099Z" fill="#3B82F6"/>
<path d="M98.38 90.9099C98.9045 90.9118 99.4179 90.7581 99.855 90.4682C100.292 90.1782 100.633 89.7649 100.835 89.2809C101.038 88.7969 101.091 88.2637 100.99 87.749C100.889 87.2343 100.638 86.7612 100.267 86.3896C99.8972 86.018 99.4251 85.7646 98.9108 85.6615C98.3964 85.5585 97.8631 85.6104 97.3783 85.8106C96.8935 86.0109 96.479 86.3506 96.1874 86.7866C95.8957 87.2226 95.74 87.7353 95.74 88.2598C95.74 88.9609 96.0179 89.6335 96.5127 90.1301C97.0075 90.6268 97.6789 90.9072 98.38 90.9099Z" fill="#3B82F6"/>
<path d="M74.4501 90.9099C74.9742 90.9099 75.4866 90.7545 75.9224 90.4633C76.3582 90.1721 76.6977 89.7582 76.8983 89.274C77.0989 88.7898 77.1513 88.2569 77.0491 87.7429C76.9468 87.2288 76.6945 86.7567 76.3239 86.3861C75.9532 86.0155 75.4811 85.763 74.967 85.6608C74.453 85.5585 73.9201 85.611 73.4359 85.8116C72.9517 86.0122 72.5379 86.3518 72.2467 86.7876C71.9555 87.2234 71.8 87.7357 71.8 88.2598C71.8 88.6078 71.8685 88.9525 72.0017 89.274C72.1349 89.5955 72.3301 89.8876 72.5762 90.1337C72.8222 90.3798 73.1144 90.575 73.4359 90.7082C73.7574 90.8414 74.1021 90.9099 74.4501 90.9099Z" fill="#3B82F6"/>
<path d="M50.51 90.9099C51.968 90.9099 53.15 89.7279 53.15 88.2699C53.15 86.8119 51.968 85.6299 50.51 85.6299C49.052 85.6299 47.87 86.8119 47.87 88.2699C47.87 89.7279 49.052 90.9099 50.51 90.9099Z" fill="#3B82F6"/>
<path d="M27.5903 90.5957C28.9388 90.0413 29.5826 88.4986 29.0281 87.1501C28.4737 85.8016 26.9311 85.158 25.5826 85.7124C24.2341 86.2668 23.5903 87.8094 24.1447 89.1579C24.6992 90.5064 26.2418 91.1502 27.5903 90.5957Z" fill="#3B82F6"/>
<path d="M2.65004 85.6602C2.12508 85.6582 1.61141 85.8122 1.17409 86.1026C0.736773 86.393 0.395556 86.8068 0.193746 87.2915C-0.008065 87.7761 -0.0613845 88.3097 0.0405473 88.8247C0.142479 89.3397 0.395045 89.8128 0.766255 90.184C1.13747 90.5552 1.61053 90.8078 2.12551 90.9097C2.64049 91.0116 3.1742 90.9583 3.65883 90.7565C4.14346 90.5547 4.55725 90.2135 4.84768 89.7762C5.1381 89.3389 5.29204 88.8252 5.29006 88.3002C5.28743 87.6008 5.00846 86.9308 4.51394 86.4363C4.01941 85.9418 3.34941 85.6628 2.65004 85.6602Z" fill="#3B82F6"/>
<path d="M146.25 69.5002C147.708 69.5002 148.89 68.3182 148.89 66.8602C148.89 65.4022 147.708 64.2202 146.25 64.2202C144.792 64.2202 143.61 65.4022 143.61 66.8602C143.61 68.3182 144.792 69.5002 146.25 69.5002Z" fill="#3B82F6"/>
<path d="M122.31 69.5002C123.768 69.5002 124.95 68.3182 124.95 66.8602C124.95 65.4022 123.768 64.2202 122.31 64.2202C120.852 64.2202 119.67 65.4022 119.67 66.8602C119.67 68.3182 120.852 69.5002 122.31 69.5002Z" fill="#3B82F6"/>
<path d="M98.38 69.5002C98.905 69.5022 99.4188 69.3482 99.8561 69.0578C100.293 68.7673 100.635 68.3535 100.836 67.8689C101.038 67.3843 101.092 66.8506 100.99 66.3357C100.888 65.8207 100.635 65.3475 100.264 64.9763C99.8927 64.6051 99.4195 64.3526 98.9046 64.2506C98.3896 64.1487 97.856 64.202 97.3714 64.4038C96.8867 64.6056 96.4729 64.9469 96.1825 65.3842C95.8921 65.8215 95.738 66.3352 95.74 66.8602C95.7426 67.5595 96.0217 68.2295 96.5163 68.724C97.0108 69.2185 97.6807 69.4976 98.38 69.5002Z" fill="#3B82F6"/>
<path d="M74.4501 69.5002C74.9746 69.5002 75.4874 69.3445 75.9234 69.0529C76.3594 68.7612 76.699 68.3468 76.8993 67.862C77.0996 67.3772 77.1514 66.8438 77.0484 66.3295C76.9453 65.8152 76.6919 65.343 76.3203 64.9728C75.9487 64.6026 75.4755 64.351 74.9608 64.2499C74.4461 64.1488 73.913 64.2027 73.429 64.4048C72.9449 64.6069 72.5318 64.9481 72.2418 65.3852C71.9519 65.8223 71.7981 66.3356 71.8001 66.8602C71.8001 67.2077 71.8687 67.5518 72.002 67.8728C72.1353 68.1937 72.3306 68.4852 72.5768 68.7305C72.823 68.9758 73.1152 69.17 73.4367 69.3021C73.7581 69.4342 74.1026 69.5015 74.4501 69.5002Z" fill="#3B82F6"/>
<path d="M50.51 69.5002C51.968 69.5002 53.15 68.3182 53.15 66.8602C53.15 65.4022 51.968 64.2202 50.51 64.2202C49.052 64.2202 47.87 65.4022 47.87 66.8602C47.87 68.3182 49.052 69.5002 50.51 69.5002Z" fill="#3B82F6"/>
<path d="M27.5927 69.193C28.9412 68.6385 29.5849 67.0959 29.0305 65.7474C28.476 64.3989 26.9334 63.7551 25.5849 64.3096C24.2364 64.864 23.5927 66.4067 24.1471 67.7552C24.7015 69.1037 26.2442 69.7474 27.5927 69.193Z" fill="#3B82F6"/>
<path d="M2.65004 69.5002C3.17459 69.5002 3.68731 69.3445 4.12331 69.0529C4.55931 68.7612 4.89899 68.3468 5.09926 67.862C5.29954 67.3772 5.3515 66.8438 5.24843 66.3295C5.14537 65.8152 4.89189 65.343 4.52028 64.9728C4.14867 64.6026 3.67561 64.351 3.16091 64.2499C2.6462 64.1488 2.11309 64.2027 1.62905 64.4048C1.145 64.6069 0.731771 64.9481 0.441791 65.3852C0.151812 65.8223 -0.00196055 66.3356 1.88721e-05 66.8602C1.63788e-05 67.2077 0.0686259 67.5518 0.201923 67.8728C0.33522 68.1937 0.530667 68.4852 0.776874 68.7305C1.02308 68.9758 1.31528 69.17 1.63674 69.3021C1.95819 69.4342 2.30251 69.5015 2.65004 69.5002Z" fill="#3B82F6"/>
<path d="M146.25 48.0901C147.708 48.0901 148.89 46.9081 148.89 45.4501C148.89 43.992 147.708 42.8101 146.25 42.8101C144.792 42.8101 143.61 43.992 143.61 45.4501C143.61 46.9081 144.792 48.0901 146.25 48.0901Z" fill="#3B82F6"/>
<path d="M122.31 48.0901C123.768 48.0901 124.95 46.9081 124.95 45.4501C124.95 43.992 123.768 42.8101 122.31 42.8101C120.852 42.8101 119.67 43.992 119.67 45.4501C119.67 46.9081 120.852 48.0901 122.31 48.0901Z" fill="#3B82F6"/>
<path d="M98.38 48.0998C98.9045 48.1018 99.4179 47.9481 99.855 47.6581C100.292 47.3681 100.633 46.9549 100.835 46.4708C101.038 45.9868 101.091 45.4537 100.99 44.939C100.889 44.4243 100.638 43.9512 100.267 43.5795C99.8972 43.2079 99.4251 42.9545 98.9108 42.8515C98.3964 42.7484 97.8631 42.8003 97.3783 43.0006C96.8935 43.2008 96.479 43.5405 96.1874 43.9765C95.8957 44.4125 95.74 44.9252 95.74 45.4498C95.74 46.1509 96.0179 46.8234 96.5127 47.3201C97.0075 47.8168 97.6789 48.0972 98.38 48.0998Z" fill="#3B82F6"/>
<path d="M74.4501 48.0998C74.9742 48.0998 75.4866 47.9444 75.9224 47.6532C76.3582 47.362 76.6977 46.9482 76.8983 46.4639C77.0989 45.9797 77.1513 45.4469 77.0491 44.9328C76.9468 44.4188 76.6945 43.9465 76.3239 43.5759C75.9532 43.2053 75.4811 42.953 74.967 42.8507C74.453 42.7485 73.9201 42.801 73.4359 43.0015C72.9517 43.2021 72.5379 43.5418 72.2467 43.9776C71.9555 44.4133 71.8 44.9257 71.8 45.4498C71.8 45.7978 71.8685 46.1424 72.0017 46.4639C72.1349 46.7855 72.3301 47.0775 72.5762 47.3236C72.8222 47.5697 73.1144 47.7649 73.4359 47.8981C73.7574 48.0313 74.1021 48.0998 74.4501 48.0998Z" fill="#3B82F6"/>
<path d="M50.51 48.0901C51.968 48.0901 53.15 46.9081 53.15 45.4501C53.15 43.992 51.968 42.8101 50.51 42.8101C49.052 42.8101 47.87 43.992 47.87 45.4501C47.87 46.9081 49.052 48.0901 50.51 48.0901Z" fill="#3B82F6"/>
<path d="M27.5912 47.7915C28.9397 47.2371 29.5834 45.6944 29.029 44.3459C28.4745 42.9974 26.9319 42.3538 25.5834 42.9082C24.2349 43.4626 23.5912 45.0052 24.1456 46.3537C24.7 47.7022 26.2427 48.346 27.5912 47.7915Z" fill="#3B82F6"/>
<path d="M2.65002 48.0998C3.17414 48.0998 3.68652 47.9444 4.12231 47.6532C4.5581 47.362 4.89769 46.9482 5.09827 46.4639C5.29884 45.9797 5.3514 45.4469 5.24915 44.9328C5.14689 44.4188 4.89454 43.9465 4.52393 43.5759C4.15332 43.2053 3.68104 42.953 3.16699 42.8507C2.65294 42.7485 2.12021 42.801 1.63599 43.0015C1.15176 43.2021 0.737841 43.5418 0.446655 43.9776C0.15547 44.4133 0 44.9257 0 45.4498C0 46.1526 0.279274 46.8266 0.776245 47.3236C1.27322 47.8206 1.9472 48.0998 2.65002 48.0998Z" fill="#3B82F6"/>
<path d="M146.25 26.6902C147.708 26.6902 148.89 25.5082 148.89 24.0502C148.89 22.5921 147.708 21.4102 146.25 21.4102C144.792 21.4102 143.61 22.5921 143.61 24.0502C143.61 25.5082 144.792 26.6902 146.25 26.6902Z" fill="#3B82F6"/>
<path d="M122.31 26.6902C123.768 26.6902 124.95 25.5082 124.95 24.0502C124.95 22.5921 123.768 21.4102 122.31 21.4102C120.852 21.4102 119.67 22.5921 119.67 24.0502C119.67 25.5082 120.852 26.6902 122.31 26.6902Z" fill="#3B82F6"/>
<path d="M98.38 26.6599C98.905 26.6618 99.4188 26.5079 99.8561 26.2174C100.293 25.927 100.635 25.5132 100.836 25.0286C101.038 24.544 101.092 24.0103 100.99 23.4953C100.888 22.9803 100.635 22.5073 100.264 22.1361C99.8927 21.7649 99.4195 21.5122 98.9046 21.4103C98.3896 21.3084 97.856 21.3617 97.3714 21.5635C96.8867 21.7653 96.4729 22.1065 96.1825 22.5438C95.8921 22.9812 95.738 23.4949 95.74 24.0199C95.7426 24.7192 96.0217 25.3892 96.5163 25.8837C97.0108 26.3783 97.6807 26.6572 98.38 26.6599Z" fill="#3B82F6"/>
<path d="M74.4501 26.6599C74.9746 26.6599 75.4874 26.5042 75.9234 26.2125C76.3594 25.9209 76.699 25.5065 76.8993 25.0217C77.0996 24.5369 77.1514 24.0035 77.0484 23.4892C76.9453 22.9749 76.6919 22.5027 76.3203 22.1325C75.9487 21.7623 75.4755 21.5107 74.9608 21.4096C74.4461 21.3084 73.913 21.3624 73.429 21.5645C72.9449 21.7666 72.5318 22.1078 72.2418 22.5449C71.9519 22.982 71.7981 23.4953 71.8001 24.0199C71.8001 24.3674 71.8687 24.7115 72.002 25.0325C72.1353 25.3534 72.3306 25.6449 72.5768 25.8902C72.823 26.1354 73.1152 26.3297 73.4367 26.4618C73.7581 26.5939 74.1026 26.6612 74.4501 26.6599Z" fill="#3B82F6"/>
<path d="M50.51 26.6902C51.968 26.6902 53.15 25.5082 53.15 24.0502C53.15 22.5921 51.968 21.4102 50.51 21.4102C49.052 21.4102 47.87 22.5921 47.87 24.0502C47.87 25.5082 49.052 26.6902 50.51 26.6902Z" fill="#3B82F6"/>
<path d="M27.5937 26.3892C28.9422 25.8348 29.5859 24.2922 29.0315 22.9437C28.477 21.5952 26.9344 20.9514 25.5859 21.5059C24.2374 22.0603 23.5936 23.603 24.1481 24.9515C24.7025 26.3 26.2452 26.9437 27.5937 26.3892Z" fill="#3B82F6"/>
<path d="M2.65004 26.6599C3.17459 26.6599 3.68731 26.5042 4.12331 26.2125C4.55931 25.9209 4.89899 25.5065 5.09926 25.0217C5.29954 24.5369 5.3515 24.0035 5.24843 23.4892C5.14537 22.9749 4.89189 22.5027 4.52028 22.1325C4.14867 21.7623 3.67561 21.5107 3.16091 21.4096C2.6462 21.3084 2.11309 21.3624 1.62905 21.5645C1.145 21.7666 0.731771 22.1078 0.441791 22.5449C0.151812 22.982 -0.00196055 23.4953 1.88721e-05 24.0199C1.63788e-05 24.3674 0.0686259 24.7115 0.201923 25.0325C0.33522 25.3534 0.530667 25.6449 0.776874 25.8902C1.02308 26.1354 1.31528 26.3297 1.63674 26.4618C1.95819 26.5939 2.30251 26.6612 2.65004 26.6599Z" fill="#3B82F6"/>
<path d="M146.25 5.28C147.708 5.28 148.89 4.09803 148.89 2.64C148.89 1.18197 147.708 0 146.25 0C144.792 0 143.61 1.18197 143.61 2.64C143.61 4.09803 144.792 5.28 146.25 5.28Z" fill="#3B82F6"/>
<path d="M122.31 5.28C123.768 5.28 124.95 4.09803 124.95 2.64C124.95 1.18197 123.768 0 122.31 0C120.852 0 119.67 1.18197 119.67 2.64C119.67 4.09803 120.852 5.28 122.31 5.28Z" fill="#3B82F6"/>
<path d="M98.38 5.29024C98.9045 5.29222 99.4179 5.13851 99.855 4.84853C100.292 4.55855 100.633 4.14532 100.835 3.66127C101.038 3.17723 101.091 2.64412 100.99 2.12941C100.889 1.61471 100.638 1.14159 100.267 0.769978C99.8972 0.398368 99.4251 0.144953 98.9108 0.0418894C98.3964 -0.0611745 97.8631 -0.00927669 97.3783 0.190998C96.8935 0.391273 96.479 0.730946 96.1874 1.16695C95.8957 1.60295 95.74 2.11567 95.74 2.64022C95.74 3.34131 96.0179 4.01383 96.5127 4.51052C97.0075 5.0072 97.6789 5.2876 98.38 5.29024Z" fill="#3B82F6"/>
<path d="M74.4501 5.29023C74.9742 5.29023 75.4866 5.13483 75.9224 4.84364C76.3582 4.55245 76.6977 4.13859 76.8983 3.65437C77.0989 3.17015 77.1513 2.63729 77.0491 2.12324C76.9468 1.60919 76.6945 1.13698 76.3239 0.76637C75.9532 0.395761 75.4811 0.143401 74.967 0.04115C74.453 -0.0611008 73.9201 -0.00860433 73.4359 0.191968C72.9517 0.39254 72.5379 0.732191 72.2467 1.16798C71.9555 1.60377 71.8 2.11609 71.8 2.64021C71.8 2.98821 71.8685 3.33286 72.0017 3.65437C72.1349 3.97588 72.3301 4.26798 72.5762 4.51405C72.8222 4.76013 73.1144 4.95534 73.4359 5.08851C73.7574 5.22169 74.1021 5.29023 74.4501 5.29023Z" fill="#3B82F6"/>
<path d="M50.51 5.28C51.968 5.28 53.15 4.09803 53.15 2.64C53.15 1.18197 51.968 0 50.51 0C49.052 0 47.87 1.18197 47.87 2.64C47.87 4.09803 49.052 5.28 50.51 5.28Z" fill="#3B82F6"/>
<path d="M27.5922 4.97757C28.9407 4.42314 29.5844 2.88048 29.03 1.53198C28.4755 0.183476 26.9329 -0.460193 25.5844 0.0942435C24.2359 0.64868 23.5921 2.19128 24.1466 3.53978C24.701 4.88828 26.2437 5.53201 27.5922 4.97757Z" fill="#3B82F6"/>
<path d="M2.65002 5.29023C3.17414 5.29023 3.68652 5.13483 4.12231 4.84364C4.5581 4.55245 4.89769 4.13859 5.09827 3.65437C5.29884 3.17015 5.3514 2.63729 5.24915 2.12324C5.14689 1.60919 4.89454 1.13698 4.52393 0.76637C4.15332 0.395761 3.68104 0.143401 3.16699 0.04115C2.65294 -0.0611008 2.12021 -0.00860433 1.63599 0.191968C1.15176 0.39254 0.737841 0.732191 0.446655 1.16798C0.15547 1.60377 0 2.11609 0 2.64021C0 3.34303 0.279274 4.01708 0.776245 4.51405C1.27322 5.01102 1.9472 5.29023 2.65002 5.29023Z" fill="#3B82F6"/>
</g>
<defs>
<clipPath id="clip0_1716_18829">
<rect width="148.89" height="90.91" fill="white"/>
</clipPath>
</defs>
</svg>
